<?xml version="1.0" encoding="UTF-8" standalone="no"?>
<!DOCTYPE svg PUBLIC "-//W3C//DTD SVG 1.1//EN" "http://www.w3.org/Graphics/SVG/1.1/DTD/svg11.dtd">
<svg width="100%" height="100%" viewBox="0 0 252 67" version="1.1" xmlns="http://www.w3.org/2000/svg" xmlns:xlink="http://www.w3.org/1999/xlink" xml:space="preserve" style="fill-rule:evenodd;clip-rule:evenodd;stroke-linejoin:round;stroke-miterlimit:1.41421;">
    <g id="Artboard1" transform="matrix(0.676655,0,0,0.791307,0,0)">
        <rect x="0" y="0" width="372.42" height="84.67" style="fill:none;"/>
        <g transform="matrix(1.47786,0,0,1.26373,0,0)">
            <g id="name" transform="matrix(1,0,0,1,-21.17,-2.68)">
                <path d="M109,13L109,4.48L114.6,4.48L114.6,6L110.6,6L110.6,8L114,8L114,9.5L110.6,9.5L110.6,11.6L114.6,11.6L114.6,13.1L109,13.1L109,13Z" style="fill:rgb(61,61,63);fill-rule:nonzero;"/>
                <path d="M120.47,13L118.77,9.6L117.57,9.6L117.57,13L115.87,13L115.87,4.48L119.17,4.48C119.227,4.476 119.283,4.474 119.34,4.474C120.774,4.474 121.957,5.647 121.97,7.08C122.012,8.092 121.346,9.008 120.37,9.28L122.27,12.98L120.47,12.98L120.47,13ZM119.17,6L117.57,6L117.57,8.3L119.17,8.3C119.193,8.301 119.217,8.302 119.24,8.302C119.85,8.302 120.355,7.809 120.37,7.2C120.37,7.186 120.371,7.173 120.371,7.159C120.371,6.523 119.847,5.999 119.211,5.999C119.197,5.999 119.184,6 119.17,6L119.17,6Z" style="fill:rgb(61,61,63);fill-rule:nonzero;"/>
                <path d="M128.47,13L125.07,7.8L125.07,13L123.37,13L123.37,4.48L124.87,4.48L128.27,9.68L128.27,4.48L130,4.48L130,13L128.5,13L128.47,13Z" style="fill:rgb(61,61,63);fill-rule:nonzero;"/>
                <path d="M139.07,13L137.67,13L136.07,7.8L134.47,13L133.07,13L130.77,4.5L132.47,4.5L133.77,9.9L135.37,4.5L136.57,4.5L138.17,9.9L139.47,4.5L141.17,4.5L139.07,13Z" style="fill:rgb(61,61,63);fill-rule:nonzero;"/>
                <rect x="109" y="18" width="4.9" height="32" style="fill:rgb(61,61,63);fill-rule:nonzero;"/>
                <path d="M141.47,50L126.67,27.5L126.67,50L121.77,50L121.77,18L126.27,18L141.07,40.5L141.07,18L146,18L146,50L141.5,50L141.47,50Z" style="fill:rgb(61,61,63);fill-rule:nonzero;"/>
                <path d="M162.27,50.28C157.47,50.28 153.97,49.18 150.97,46.08L154.17,42.88C156.333,45.037 159.321,46.166 162.37,45.98C166.57,45.98 168.97,44.18 168.97,41.08C169.075,39.838 168.593,38.617 167.67,37.78C166.87,36.98 166.07,36.68 164.17,36.48L160.37,35.98C158.125,35.734 156.002,34.829 154.27,33.38C152.656,31.777 151.816,29.549 151.97,27.28C151.97,21.68 155.97,17.88 162.67,17.88C166.87,17.88 169.87,18.98 172.57,21.48L169.47,24.58C167.575,22.829 165.045,21.926 162.47,22.08C158.67,22.08 156.57,24.28 156.57,27.08C156.539,28.202 156.974,29.289 157.77,30.08C158.804,30.911 160.052,31.431 161.37,31.58L164.97,32.08C167.97,32.58 169.57,33.28 170.97,34.48C172.77,35.98 173.57,38.28 173.57,41.08C173.87,46.78 169,50.28 162.27,50.28Z" style="fill:rgb(61,61,63);fill-rule:nonzero;"/>
                <rect x="179.87" y="18" width="4.9" height="32" style="fill:rgb(61,61,63);fill-rule:nonzero;"/>
                <path d="M211.87,46.68C209.607,49.11 206.387,50.427 203.07,50.28C199.927,50.33 196.894,49.103 194.67,46.88C191.47,43.68 191.57,40.18 191.57,33.98C191.57,27.78 191.57,24.28 194.67,21.08C196.883,18.842 199.923,17.611 203.07,17.68C208.916,17.447 214.032,21.776 214.77,27.58L209.87,27.58C209.07,24.08 206.67,21.98 203.07,21.98C201.294,21.964 199.59,22.69 198.37,23.98C196.77,25.68 196.47,27.48 196.47,33.88C196.47,40.28 196.87,42.18 198.37,43.88C199.602,45.141 201.308,45.83 203.07,45.78C205.04,45.838 206.94,45.034 208.27,43.58C209.431,42.184 210.005,40.39 209.87,38.58L209.87,36.78L203.07,36.78L203.07,32.68L214.77,32.68L214.77,37.58C214.77,41.78 214,44.38 211.87,46.68Z" style="fill:rgb(61,61,63);fill-rule:nonzero;"/>
                <path d="M239.27,50L239.27,36L226.27,36L226.27,50L221.37,50L221.37,18L226.27,18L226.27,31.7L239.27,31.7L239.27,18L244.17,18L244.17,50L239.27,50Z" style="fill:rgb(61,61,63);fill-rule:nonzero;"/>
                <path d="M262.87,22.38L262.87,50.08L258,50.08L258,22.38L249.2,22.38L249.2,18L271.7,18L271.7,22.4L262.9,22.4L262.87,22.38Z" style="fill:rgb(61,61,63);fill-rule:nonzero;"/>
            </g>
            <g id="slogan" transform="matrix(1,0,0,1,-21.17,-2.68)">
                <path d="M110.17,62.28C110.156,62.367 110.149,62.454 110.149,62.542C110.149,63.442 110.889,64.182 111.789,64.182C111.816,64.182 111.843,64.181 111.87,64.18C112.515,64.226 113.145,63.967 113.57,63.48L114.47,64.28C113.811,65.016 112.857,65.42 111.87,65.38C110.17,65.38 108.77,64.48 108.77,61.88C108.77,59.68 109.87,58.38 111.67,58.38C113.47,58.38 114.57,59.68 114.57,61.68L114.57,62.28L110.17,62.28L110.17,62.28ZM113.07,60.38C112.86,59.845 112.345,59.489 111.77,59.48C111.178,59.513 110.646,59.856 110.37,60.38C110.246,60.664 110.178,60.97 110.17,61.28L113.27,61.28C113.17,60.88 113.17,60.68 113.07,60.38L113.07,60.38Z" style="fill:rgb(227,31,43);fill-rule:nonzero;"/>
                <path d="M119.87,65.28L118.47,62.98L117.07,65.28L115.37,65.28L117.67,61.78L115.37,58.38L117.07,58.38L118.47,60.58L119.77,58.38L121.47,58.38L119.27,61.68L121.57,65.18L119.87,65.18L119.87,65.28Z" style="fill:rgb(227,31,43);fill-rule:nonzero;"/>
                <path d="M127.57,64.78C127.106,65.198 126.494,65.414 125.87,65.38C125.177,65.417 124.507,65.119 124.07,64.58L124.07,68.08L122.67,68.08L122.67,58.38L124.07,58.38L124.07,59.08C124.507,58.541 125.177,58.243 125.87,58.28C126.494,58.246 127.106,58.462 127.57,58.88C128.204,59.705 128.491,60.746 128.37,61.78C128.49,62.845 128.204,63.917 127.57,64.78L127.57,64.78ZM125.47,59.58C124.27,59.58 124.07,60.68 124.07,61.88C124.07,63.08 124.27,64.18 125.47,64.18C126.67,64.18 126.87,63.08 126.87,61.88C126.87,60.68 126.77,59.58 125.47,59.58Z" style="fill:rgb(227,31,43);fill-rule:nonzero;"/>
                <path d="M133.67,65.28L133.67,64.68C133.204,65.169 132.544,65.426 131.87,65.38C131.212,65.45 130.555,65.231 130.07,64.78C129.705,64.37 129.524,63.827 129.57,63.28C129.57,62.18 130.37,61.28 131.97,61.28L133.77,61.28L133.77,60.78C133.77,59.88 133.37,59.48 132.27,59.48C131.679,59.412 131.097,59.683 130.77,60.18L129.87,59.28C130.461,58.521 131.419,58.138 132.37,58.28C134.27,58.28 135.17,59.08 135.17,60.58L135.17,65.18L133.67,65.18L133.67,65.28ZM133.67,62.28L132.07,62.28C132.004,62.267 131.937,62.26 131.87,62.26C131.321,62.26 130.87,62.711 130.87,63.26C130.87,63.267 130.87,63.273 130.87,63.28C130.881,63.848 131.351,64.31 131.92,64.31C132.004,64.31 132.088,64.3 132.17,64.28C132.641,64.351 133.12,64.204 133.47,63.88C133.702,63.602 133.81,63.24 133.77,62.88L133.77,62.28L133.67,62.28L133.67,62.28Z" style="fill:rgb(227,31,43);fill-rule:nonzero;"/>
                <path d="M141.07,65.28L141.07,61.08C141.081,61.012 141.086,60.944 141.086,60.875C141.086,60.162 140.499,59.575 139.786,59.575C139.747,59.575 139.709,59.577 139.67,59.58C139.647,59.579 139.623,59.578 139.6,59.578C138.865,59.578 138.26,60.183 138.26,60.918C138.26,60.972 138.263,61.026 138.27,61.08L138.27,65.28L136.87,65.28L136.87,58.38L138.27,58.38L138.27,59.08C138.735,58.578 139.386,58.289 140.07,58.28C140.694,58.246 141.306,58.462 141.77,58.88C142.246,59.395 142.498,60.079 142.47,60.78L142.47,65.18L141.07,65.18L141.07,65.28Z" style="fill:rgb(227,31,43);fill-rule:nonzero;"/>
                <path d="M148.27,65.28L148.27,64.58C147.833,65.119 147.163,65.417 146.47,65.38C145.846,65.414 145.234,65.198 144.77,64.78C144.149,63.948 143.864,62.912 143.97,61.88C143.864,60.848 144.149,59.812 144.77,58.98C145.234,58.562 145.846,58.346 146.47,58.38C147.163,58.343 147.833,58.641 148.27,59.18L148.27,55.68L149.67,55.68L149.67,65.28L148.27,65.28ZM146.87,59.58C145.67,59.58 145.47,60.68 145.47,61.88C145.47,63.08 145.67,64.18 146.87,64.18C148.07,64.18 148.27,63.08 148.27,61.88C148.27,60.68 148.07,59.58 146.87,59.58Z" style="fill:rgb(227,31,43);fill-rule:nonzero;"/>
                <path d="M151.57,57.08L151.57,55.58L153.07,55.58L153.07,57.08L151.57,57.08ZM151.67,65.28L151.67,58.38L153.07,58.38L153.07,65.18L151.67,65.18L151.67,65.28Z" style="fill:rgb(227,31,43);fill-rule:nonzero;"/>
                <path d="M159.17,65.28L159.17,61.08C159.181,61.012 159.186,60.944 159.186,60.875C159.186,60.162 158.599,59.575 157.886,59.575C157.847,59.575 157.809,59.577 157.77,59.58C157.747,59.579 157.723,59.578 157.7,59.578C156.965,59.578 156.36,60.183 156.36,60.918C156.36,60.972 156.363,61.026 156.37,61.08L156.37,65.28L155,65.28L155,58.38L156.4,58.38L156.4,59.08C156.865,58.578 157.516,58.289 158.2,58.28C158.824,58.246 159.436,58.462 159.9,58.88C160.376,59.395 160.628,60.079 160.6,60.78L160.6,65.18L159.2,65.18L159.2,65.28L159.17,65.28Z" style="fill:rgb(227,31,43);fill-rule:nonzero;"/>
                <path d="M164.77,68.08C163.876,68.154 162.995,67.823 162.37,67.18L163.27,66.28C163.655,66.694 164.206,66.915 164.77,66.88C164.808,66.883 164.846,66.884 164.884,66.884C165.707,66.884 166.384,66.207 166.384,65.384C166.384,65.316 166.379,65.248 166.37,65.18L166.37,64.38C165.933,64.919 165.263,65.217 164.57,65.18C163.974,65.229 163.386,65.009 162.97,64.58C162.323,63.8 162.033,62.784 162.17,61.78C162.047,60.779 162.348,59.77 163,59C163.435,58.599 164.009,58.384 164.6,58.4C165.293,58.363 165.963,58.661 166.4,59.2L166.4,58.4L167.7,58.4L167.7,65.2C167.703,65.253 167.705,65.305 167.705,65.358C167.705,66.855 166.472,68.088 164.975,68.088C164.906,68.088 164.838,68.085 164.77,68.08ZM164.97,59.58C163.77,59.58 163.57,60.68 163.57,61.68C163.57,62.68 163.77,63.78 164.97,63.78C166.17,63.78 166.37,62.68 166.37,61.68C166.37,60.68 166.17,59.58 165,59.58L164.97,59.58Z" style="fill:rgb(227,31,43);fill-rule:nonzero;"/>
                <path d="M174.87,66.68C174.765,67.01 174.595,67.316 174.37,67.58C173.993,67.933 173.485,68.114 172.97,68.08L172.37,68.08L172.37,66.88L172.77,66.88C173.232,66.943 173.671,66.636 173.77,66.18L174.17,65.08L171.77,58.58L173.27,58.58L174.87,63.38L176.47,58.58L178,58.58L174.87,66.68Z" style="fill:rgb(227,31,43);fill-rule:nonzero;"/>
                <path d="M183.27,64.58C182.731,65.156 181.955,65.451 181.17,65.38C180.421,65.406 179.694,65.115 179.17,64.58C178.568,63.816 178.281,62.849 178.37,61.88C178.301,60.913 178.585,59.953 179.17,59.18C179.68,58.623 180.417,58.328 181.17,58.38C181.941,58.396 182.684,58.679 183.27,59.18C183.872,59.944 184.159,60.911 184.07,61.88C184.192,62.852 183.902,63.831 183.27,64.58ZM182.27,59.98C181.713,59.45 180.827,59.45 180.27,59.98C179.871,60.528 179.692,61.207 179.77,61.88C179.692,62.553 179.871,63.232 180.27,63.78C180.528,64.054 180.894,64.2 181.27,64.18C181.648,64.219 182.023,64.069 182.27,63.78C182.669,63.232 182.848,62.553 182.77,61.88C182.843,61.213 182.664,60.543 182.27,60L182.27,59.98Z" style="fill:rgb(227,31,43);fill-rule:nonzero;"/>
                <path d="M189.87,65.28L189.87,64.58C189.405,65.082 188.754,65.371 188.07,65.38C187.446,65.414 186.834,65.198 186.37,64.78C185.894,64.265 185.642,63.581 185.67,62.88L185.67,58.38L187.07,58.38L187.07,62.58C187.059,62.648 187.054,62.716 187.054,62.785C187.054,63.498 187.641,64.085 188.354,64.085C188.393,64.085 188.431,64.083 188.47,64.08C188.493,64.081 188.517,64.082 188.54,64.082C189.275,64.082 189.88,63.477 189.88,62.742C189.88,62.688 189.877,62.634 189.87,62.58L189.87,58.38L191.27,58.38L191.27,65.18L189.87,65.18L189.87,65.28Z" style="fill:rgb(227,31,43);fill-rule:nonzero;"/>
                <path d="M197,60.08C196.751,59.781 196.388,59.599 196,59.58C195.224,59.606 194.599,60.252 194.599,61.029C194.599,61.046 194.599,61.063 194.6,61.08L194.6,65.28L193.2,65.28L193.2,58.38L194.6,58.38L194.6,59.08C195.053,58.562 195.712,58.269 196.4,58.28C196.994,58.245 197.575,58.464 198,58.88L197,60.08Z" style="fill:rgb(227,31,43);fill-rule:nonzero;"/>
                <path d="M206.27,65.28L204.37,62.08L203.37,63.18L203.37,65.18L202,65.18L202,55.58L203.4,55.58L203.4,61.48L206.1,58.28L207.8,58.28L205.4,60.98L208.1,65.18L206.3,65.18L206.3,65.28L206.27,65.28Z" style="fill:rgb(227,31,43);fill-rule:nonzero;"/>
                <path d="M213.37,65.28L213.37,61.08C213.381,61.012 213.386,60.944 213.386,60.875C213.386,60.162 212.799,59.575 212.086,59.575C212.047,59.575 212.009,59.577 211.97,59.58C211.947,59.579 211.923,59.578 211.9,59.578C211.165,59.578 210.56,60.183 210.56,60.918C210.56,60.972 210.563,61.026 210.57,61.08L210.57,65.28L209.17,65.28L209.17,58.38L210.57,58.38L210.57,59.08C211.035,58.578 211.686,58.289 212.37,58.28C212.994,58.246 213.606,58.462 214.07,58.88C214.546,59.395 214.798,60.079 214.77,60.78L214.77,65.18L213.37,65.18L213.37,65.28Z" style="fill:rgb(227,31,43);fill-rule:nonzero;"/>
                <path d="M221.17,64.58C220.631,65.156 219.855,65.451 219.07,65.38C218.321,65.406 217.594,65.115 217.07,64.58C216.468,63.816 216.181,62.849 216.27,61.88C216.201,60.913 216.485,59.953 217.07,59.18C217.58,58.623 218.317,58.328 219.07,58.38C219.841,58.396 220.584,58.679 221.17,59.18C221.772,59.944 222.059,60.911 221.97,61.88C222.141,62.855 221.845,63.856 221.17,64.58ZM220.17,59.98C219.613,59.45 218.727,59.45 218.17,59.98C217.771,60.528 217.592,61.207 217.67,61.88C217.592,62.553 217.771,63.232 218.17,63.78C218.428,64.054 218.794,64.2 219.17,64.18C219.548,64.219 219.923,64.069 220.17,63.78C220.569,63.232 220.748,62.553 220.67,61.88C220.743,61.213 220.564,60.543 220.17,60L220.17,59.98Z" style="fill:rgb(227,31,43);fill-rule:nonzero;"/>
                <path d="M230.27,65.28L229.07,65.28L227.47,60.48L225.87,65.28L224.67,65.28L222.57,58.48L224.07,58.48L225.37,63.28L226.97,58.48L228.07,58.48L229.67,63.28L230.97,58.48L232.47,58.48L230.27,65.28Z" style="fill:rgb(227,31,43);fill-rule:nonzero;"/>
                <path d="M235.27,65.28C235.229,65.283 235.187,65.284 235.146,65.284C234.169,65.284 233.366,64.481 233.366,63.504C233.366,63.463 233.367,63.421 233.37,63.38L233.37,55.68L234.77,55.68L234.77,63.28C234.761,63.323 234.757,63.367 234.757,63.411C234.757,63.779 235.059,64.081 235.427,64.081C235.441,64.081 235.456,64.081 235.47,64.08L236.07,64.08L236.07,65.28L235.27,65.28L235.27,65.28Z" style="fill:rgb(227,31,43);fill-rule:nonzero;"/>
                <path d="M238.07,62.28C238.056,62.367 238.049,62.454 238.049,62.542C238.049,63.442 238.789,64.182 239.689,64.182C239.716,64.182 239.743,64.181 239.77,64.18C240.415,64.226 241.045,63.967 241.47,63.48L242.37,64.28C241.711,65.016 240.757,65.42 239.77,65.38C238.07,65.38 236.67,64.48 236.67,61.88C236.67,59.68 237.77,58.38 239.57,58.38C241.37,58.38 242.47,59.68 242.47,61.68L242.47,62.28L238.07,62.28L238.07,62.28ZM240.97,60.38C240.76,59.845 240.245,59.489 239.67,59.48C239.078,59.513 238.546,59.856 238.27,60.38C238.146,60.664 238.078,60.97 238.07,61.28L241.17,61.28C241.172,60.972 241.114,60.666 241,60.38L240.97,60.38Z" style="fill:rgb(227,31,43);fill-rule:nonzero;"/>
                <path d="M248.07,65.28L248.07,64.58C247.633,65.119 246.963,65.417 246.27,65.38C245.646,65.414 245.034,65.198 244.57,64.78C243.949,63.948 243.664,62.912 243.77,61.88C243.664,60.848 243.949,59.812 244.57,58.98C245.034,58.562 245.646,58.346 246.27,58.38C246.963,58.343 247.633,58.641 248.07,59.18L248.07,55.68L249.47,55.68L249.47,65.28L248.07,65.28ZM246.57,59.58C245.37,59.58 245.17,60.68 245.17,61.88C245.17,63.08 245.37,64.18 246.57,64.18C247.77,64.18 247.97,63.08 247.97,61.88C247.97,60.68 247.87,59.58 246.57,59.58Z" style="fill:rgb(227,31,43);fill-rule:nonzero;"/>
                <path d="M253.67,68.08C252.776,68.154 251.895,67.823 251.27,67.18L252.17,66.28C252.555,66.694 253.106,66.915 253.67,66.88C253.708,66.883 253.746,66.884 253.784,66.884C254.607,66.884 255.284,66.207 255.284,65.384C255.284,65.316 255.279,65.248 255.27,65.18L255.27,64.38C254.833,64.919 254.163,65.217 253.47,65.18C252.874,65.229 252.286,65.009 251.87,64.58C251.223,63.8 250.933,62.784 251.07,61.78C250.933,60.776 251.223,59.76 251.87,58.98C252.305,58.579 252.879,58.364 253.47,58.38C254.163,58.343 254.833,58.641 255.27,59.18L255.27,58.38L256.57,58.38L256.57,65.18C256.577,65.256 256.58,65.333 256.58,65.41C256.58,66.88 255.37,68.09 253.9,68.09C253.823,68.09 253.746,68.087 253.67,68.08ZM253.87,59.58C252.67,59.58 252.47,60.68 252.47,61.68C252.47,62.68 252.67,63.78 253.87,63.78C255.07,63.78 255.27,62.68 255.27,61.68C255.27,60.68 255.07,59.58 253.87,59.58L253.87,59.58Z" style="fill:rgb(227,31,43);fill-rule:nonzero;"/>
                <path d="M259.57,62.28C259.556,62.367 259.549,62.454 259.549,62.542C259.549,63.442 260.289,64.182 261.189,64.182C261.216,64.182 261.243,64.181 261.27,64.18C261.915,64.226 262.545,63.967 262.97,63.48L263.87,64.28C263.211,65.016 262.257,65.42 261.27,65.38C259.57,65.38 258.17,64.48 258.17,61.88C258.17,59.68 259.27,58.38 261.07,58.38C262.87,58.38 263.97,59.68 263.97,61.68L263.97,62.28L259.57,62.28L259.57,62.28ZM262.47,60.38C262.26,59.845 261.745,59.489 261.17,59.48C260.578,59.513 260.046,59.856 259.77,60.38C259.646,60.664 259.578,60.97 259.57,61.28L262.67,61.28C262.712,60.966 262.641,60.647 262.47,60.38L262.47,60.38Z" style="fill:rgb(227,31,43);fill-rule:nonzero;"/>
                <rect x="265.67" y="63.68" width="1.6" height="1.6" style="fill:rgb(227,31,43);fill-rule:nonzero;"/>
            </g>
            <g id="picto" transform="matrix(1,0,0,1,-21.17,-2.68)">
                <path d="M24.57,45.78L31.57,45.78L43.37,33.98L31.47,22.08L24.47,22.08L36.37,33.98L24.57,45.78Z" style="fill:rgb(122,21,23);fill-rule:nonzero;"/>
                <path d="M28.27,11.78L21.17,11.78L43.37,33.98L21.37,56.08L28.37,56.08L50.47,33.98L28.27,11.78Z" style="fill:rgb(227,31,43);fill-rule:nonzero;"/>
                <path d="M62.07,22.28C57.835,22.267 53.916,24.572 51.87,28.28L57.67,34.08L51.87,39.88C53.961,43.548 57.872,45.82 62.095,45.82C68.551,45.82 73.865,40.507 73.865,34.05C73.865,27.593 68.551,22.28 62.095,22.28C62.086,22.28 62.078,22.28 62.07,22.28L62.07,22.28Z" style="fill:rgb(122,21,23);fill-rule:nonzero;"/>
                <path d="M62.07,2.68C52.664,2.687 43.739,6.91 37.77,14.18L41.27,17.68C46.269,11.332 53.916,7.62 61.996,7.62C76.468,7.62 88.376,19.528 88.376,34C88.376,48.47 76.47,60.378 62,60.38C53.912,60.411 46.254,56.674 41.3,50.28L37.8,53.78C43.744,61.077 52.672,65.32 62.084,65.32C79.265,65.32 93.404,51.182 93.404,34C93.404,16.818 79.265,2.68 62.084,2.68C62.079,2.68 62.075,2.68 62.07,2.68L62.07,2.68Z" style="fill:rgb(227,31,43);fill-rule:nonzero;"/>
            </g>
        </g>
    </g>
</svg>
